# xmcd
#
# Track frame offsets: 
#        182
#        13862
#        28500
#        42002
#        56737
#        71797
#        85702
#        101900
#        115730
#        129432
#
# Disc length: 1912 seconds
#
# Revision: 3
# Processed by: cddbd v1.5.2PL0 Copyright (c) Steve Scherf et al.
# Submitted via: ExactAudioCopy v1.0b3
#
DISCID=8107760a
DTITLE=T. Graham Brown - All-Time Greatest Hits
DYEAR=1993
DGENRE=Country
TTITLE0=I Tell It Like It Used To Be
TTITLE1=Hell and High Water
TTITLE2=Brilliant Conversationalist
TTITLE3=She Couldn't Love Me Anymore
TTITLE4=Darlene
TTITLE5=Come as You Were
TTITLE6=Drowning in Memories
TTITLE7=Shakey Ground
TTITLE8=With This Ring
TTITLE9=If You Could Only See Me Now
EXTD=YEAR: 1993
EXTT0=
EXTT1=
EXTT2=
EXTT3=
EXTT4=
EXTT5=
EXTT6=
EXTT7=
EXTT8=
EXTT9=
PLAYORDER=
